<svg width="668" height="807" viewBox="0 0 668 807" fill="none" xmlns="http://www.w3.org/2000/svg">
<path d="M523.757 630.208C523.757 630.208 523.578 630.259 523.103 630.117C522.188 631.474 521.361 632.976 521.38 634.468C521.437 639.105 522.076 643.745 521.957 648.37C521.899 650.629 521.313 653.49 519.851 655C509.116 666.091 498.174 676.987 487.076 687.716C485.695 689.05 483.029 689.531 480.944 689.569C475.486 689.668 470.02 689.211 464.557 689.203C463.502 689.201 461.521 690.255 461.533 690.788C461.664 696.814 462.101 702.833 462.442 709.271C461.338 711.782 460.652 714.264 459.088 715.909C450.458 724.979 441.614 733.845 432.515 742.934C431.492 744.443 430.797 745.799 430.102 747.154C430.102 747.154 430.037 747.091 429.711 746.929C426.604 747.892 423.86 749.841 421.036 749.963C415.945 750.184 410.774 749.544 405.7 748.819C401.895 748.276 400.949 749.805 401.185 753.182C401.555 758.476 402.056 763.787 401.914 769.075C401.855 771.262 400.651 773.684 399.306 775.514C396.804 778.919 393.816 781.969 391.031 785.167C391.031 785.167 391.024 785.097 390.715 785.117C384.218 791.397 378.03 797.656 371.545 804.02C369.94 804.803 368.631 805.481 366.895 806.142C356.121 806.114 345.772 806.087 335.423 806.104C333.219 806.107 331.015 806.27 328.566 806.3C328.158 806.208 327.994 806.175 327.682 805.855C326.666 805.084 325.796 804.6 324.927 804.116C324.927 804.116 325.001 804.107 325.008 803.824C324.651 803.392 324.288 803.242 323.925 803.092C323.925 803.092 324.007 803.096 324.035 802.788C319.697 797.938 315.447 793.275 310.928 788.889C307.041 785.116 302.846 781.66 298.788 778.064C296.262 775.694 293.737 773.324 291.113 770.272C289.943 768.75 288.871 767.909 287.799 767.069C285.271 764.694 282.742 762.319 279.87 759.468C279.267 758.684 279.007 758.375 278.747 758.067C264.566 744.017 250.386 729.967 235.89 715.437C235.37 714.649 235.166 714.34 234.962 714.03C234.962 714.03 235.065 714.062 234.976 713.798C234.21 713.046 233.534 712.559 232.858 712.072C231.63 711.005 230.403 709.937 228.83 708.446C228.252 707.704 228.018 707.386 227.785 707.068C224.255 703.669 220.726 700.269 216.842 696.435C216.255 695.689 216.023 695.379 215.79 695.068C213.592 693.014 211.395 690.96 208.828 688.487C208.24 687.735 208.02 687.401 207.8 687.068C206.914 686.314 206.027 685.56 204.791 684.441C204.237 683.739 204.034 683.404 203.83 683.069C198.616 678.004 193.402 672.939 187.983 667.232C186.761 665.291 185.864 663.873 184.707 662.713C170.03 647.996 155.316 633.315 140.609 618.627C130.608 608.639 120.635 598.621 110.543 588.726C109.596 587.797 107.88 587.652 106.521 587.144L106.189 587.188C106.189 587.188 105.946 586.958 106.323 586.513C104.115 583.771 101.531 581.475 98.9466 579.179C98.9466 579.179 99.0004 579.086 99.1265 578.756C98.8089 578.331 98.3653 578.235 97.9216 578.14C97.9216 578.14 97.9923 578.111 98.1258 577.753C97.8128 577.315 97.3664 577.235 96.9199 577.154C96.9199 577.154 97.0039 577.09 97.2849 576.844C96.0243 575.454 94.4828 574.31 92.9412 573.166C92.9412 573.166 93.0048 573.094 93.1277 572.753C92.8098 572.32 92.369 572.227 91.9282 572.134C91.9282 572.134 92.0112 572.093 92.258 571.834C91.7489 570.507 91.1278 569.305 90.2168 568.391C70.6721 548.797 51.108 529.222 31.4796 509.711C30.6307 508.867 29.1324 508.676 27.9366 508.182C27.9366 508.182 27.9976 508.102 28.2209 507.839C25.277 504.776 22.1097 501.977 18.9425 499.178C18.9425 499.178 18.9846 499.107 19.2458 498.854C14.1866 493.102 8.87778 487.592 3.50916 482.14C3.26063 481.888 2.4761 482.163 1.94119 482.193C1.94119 482.193 1.93116 482.162 2.22332 481.944C2.05946 481.196 1.60342 480.666 1.14738 480.136C0.928681 479.846 0.709992 479.557 0.292473 478.675C0.0661699 476.419 0.0146791 474.754 0.0145951 473.09C0.00662309 318.56 0.00232006 164.031 6.067e-08 9.50183C-4.59393e-05 6.33997 0.025963 3.1781 0.429741 0C10.8907 2.5467 20.9617 5.10964 31.3917 7.83923C37.9042 9.36322 44.0577 10.7206 50.2113 12.0779C52.9545 12.7493 55.6977 13.4207 59.041 14.4506C69.0958 17.2386 78.5506 19.6682 88.2769 22.3436C117.939 30.3796 147.311 38.2447 176.732 45.9183C186.832 48.5527 197.058 50.7083 207.226 53.0827C207.971 53.0927 208.716 53.1026 209.957 53.5199C213.078 54.6466 215.704 55.366 218.329 56.0855C218.329 56.0855 218.682 56.0022 219.004 56.3985C229.244 59.3353 239.163 61.8759 249.435 64.3803C250.009 64.2589 250.23 64.1735 250.45 64.0882C250.45 64.0882 250.697 63.9821 250.9 64.3982C253.859 65.1971 256.617 65.58 259.374 65.9628C259.374 65.9628 259.652 65.903 259.829 66.3405C260.481 66.8741 260.954 66.9701 261.427 67.0662C261.427 67.0662 261.719 66.98 261.935 67.3944C272.966 70.8275 283.735 74.0314 294.616 76.7906C300.478 78.2771 306.533 79.0017 312.501 80.0701C312.501 80.0701 312.725 79.9483 312.838 80.3983C314.671 81.4256 316.39 82.0029 318.38 82.7548C320.44 83.309 322.229 83.6886 324.344 84.1013C324.885 84.1175 325.102 84.1006 325.319 84.0838C325.319 84.0838 325.69 84.0112 326.11 84.3462C327.716 84.8163 328.903 84.9514 330.089 85.0864C330.089 85.0864 330.01 85.0953 330.103 85.3823C332.64 85.464 335.178 85.611 337.513 84.9917C347.062 82.459 356.549 79.6924 366.06 77.0118C366.06 77.0118 366.032 77.1167 366.414 77.0478C374.135 75.2345 381.516 73.6432 388.801 71.6916C393.617 70.4012 398.295 68.5936 403.035 67.0175C403.035 67.0175 403.008 67.0806 403.238 67.1865C403.66 67.3006 403.852 67.3087 404.462 67.316C410.988 65.8335 417.126 64.4672 423.197 62.8453C435.152 59.6509 447.069 56.3147 459.409 53.0164C460.638 52.871 461.48 52.8199 462.281 52.6113C489.774 45.4511 517.267 38.2884 544.742 31.0608C545.92 30.7511 546.934 29.823 548.025 29.183C549.696 28.8201 551.368 28.4572 553.858 28.1147C565.823 25.1901 576.97 22.2452 588.515 19.2403C596.942 17.1061 604.971 15.0321 613.388 12.9191C622.444 10.6482 631.098 8.36612 639.781 6.19892C648.108 4.12058 656.465 2.16146 664.87 0.411541C665.148 1.13233 665.367 1.59153 665.564 2.52106C665.506 49.5839 665.47 96.1763 665.156 142.891C663.979 144.305 663.08 145.598 662.181 146.891C658.079 150.055 653.978 153.22 649.426 156.732C653.158 160.249 656.995 163.865 661.13 168.03C661.987 168.743 662.544 168.907 663.102 169.071C663.102 169.071 663.033 169.074 662.958 169.444C663.794 173.222 664.703 176.629 665.575 180.507C665.533 195.241 665.528 209.504 665.261 223.954C664.339 225.482 663.678 226.824 663.017 228.166C663.017 228.166 663.018 228.091 662.745 228.085C662.03 228.696 661.588 229.312 661.145 229.928C657.123 233.489 653.1 237.05 648.555 241.074C651.182 243.333 653.469 245.298 655.872 247.924C657.14 249.775 658.138 251.186 659.472 252.114C663.536 254.944 664.899 258.597 664.772 263.595C664.431 277.063 664.463 290.547 664.721 304.018C664.806 308.426 663.49 311.62 660.149 314.342C656.543 317.281 653.116 320.441 649.661 323.561C646.925 326.031 646.903 327.748 651.091 328.079C651.091 328.079 651.024 328.082 650.957 328.373C651.289 329.152 651.688 329.639 652.087 330.127C652.087 330.127 651.979 330.146 652.221 330.271C653.031 330.632 653.599 330.869 654.167 331.105C655.718 332.532 657.269 333.959 659.031 336.015C660.196 337.108 661.149 337.571 662.101 338.034C662.101 338.034 662.034 338.068 661.98 338.35C662.286 338.797 662.646 338.963 663.005 339.129C667.438 341.708 667.497 345.94 667.126 350.269C666.905 352.846 666.469 355.405 665.878 358.775C665.755 370.077 665.884 380.577 666.013 391.077C667.104 393.954 666.696 396.162 663.948 398.153C659.878 401.101 656.112 404.473 652.249 407.704C650.01 409.577 649.248 411.275 652.116 413.592C655.169 416.059 657.758 419.098 660.891 422.405C662.186 423.644 663.142 424.367 664.097 425.089C664.097 425.089 664.012 425.093 664.072 425.523C664.28 427.924 664.549 429.894 664.557 431.866C664.616 445.091 664.815 458.32 664.518 471.537C664.43 475.431 662.887 479.291 662.011 483.166C662.011 483.166 662.015 483.088 661.706 483.109C659.953 484.813 658.51 486.495 657.068 488.176C657.068 488.176 657.024 488.107 656.715 488C654.287 489.988 652.167 492.081 650.048 494.175C650.048 494.175 650.035 494.108 649.712 494.057C648.948 494.731 648.508 495.456 648.068 496.181C648.068 496.181 648.024 496.105 647.721 495.977C645.958 497.291 644.497 498.733 643.036 500.175C643.036 500.175 643.033 500.103 642.668 500.153C641.922 502.075 641.163 503.96 641.227 505.816C641.472 512.95 641.564 520.132 642.551 527.179C643.121 531.254 641.718 533.611 639.086 536.228C631.563 543.707 624.266 551.413 616.57 559.16C615.86 560.248 615.46 561.206 615.061 562.164C615.061 562.164 615.032 562.102 614.737 562.073C614.309 562.421 614.176 562.797 614.043 563.174C614.043 563.174 614.031 563.106 613.694 563.005C612.594 563.99 611.832 565.077 611.07 566.164C611.07 566.164 611.03 566.101 610.729 566.06C610.303 566.404 610.177 566.789 610.051 567.174C610.051 567.174 610.027 567.1 609.728 566.951C607.621 567.97 605.812 569.139 603.799 570.12C602.735 569.982 601.874 570.033 600.632 570.029C599.495 570.086 598.74 570.199 597.656 570.076C593.698 569.613 589.989 569.779 586.459 569.064C581.751 568.111 581.156 570.239 581.241 574.146C581.399 581.48 581.158 588.823 581.083 596.162C581.083 596.162 581.02 596.093 580.719 596.045C580.3 596.387 580.184 596.778 580.067 597.169C580.067 597.169 580.027 597.102 579.734 597.071C579.315 597.417 579.188 597.794 579.062 598.171C579.062 598.171 579.031 598.101 578.728 598.058C578.306 598.4 578.187 598.785 578.067 599.171C578.067 599.171 578.028 599.102 577.732 599.067C577.311 599.411 577.186 599.791 577.06 600.17C577.06 600.17 577.031 600.089 576.746 599.961C575.922 600.231 575.382 600.63 574.799 601.331C574.863 601.809 574.969 601.984 575.075 602.159C575.075 602.159 575.023 602.098 574.696 602.012C573.27 603.34 572.171 604.754 571.073 606.168C571.073 606.168 571.022 606.093 570.718 605.961C564.818 611.122 559.201 616.392 553.665 621.747C553.188 622.208 553.256 623.232 553.071 623.994C551.286 625.628 549.5 627.261 546.932 629.094C543.027 629.288 539.898 629.166 536.781 629.308C532.435 629.505 528.098 629.899 523.757 630.208ZM595.007 338.078C595.007 338.078 594.926 338.075 595.524 338.111C595.684 337.781 595.844 337.452 596.414 336.871C596.703 336.703 596.91 336.465 597.738 336.131C597.801 335.749 597.863 335.368 598.004 335.072C598.004 335.072 597.906 335.009 598.635 335.263C598.739 334.835 598.842 334.407 599.001 334.074C599.001 334.074 598.92 333.999 599.585 334.355C602.907 331.773 606.229 329.19 610.497 325.872C603.812 320.56 597.867 315.837 591.991 311.106C591.991 311.106 591.981 311.175 592.223 310.253C592.198 296.513 592.223 282.772 592.124 269.032C592.081 263.022 591.482 256.945 595.996 252.066C595.996 252.066 595.927 252.057 596.633 252.197C598.763 250.178 600.894 248.159 603.606 245.805C605.346 244.618 607.087 243.431 609.064 242.082C603.807 237.249 599.823 233.587 595.786 229.248C592.543 226.148 592.007 222.351 592.272 218.017C592.625 212.239 592.291 206.423 592.375 200.624C592.523 190.376 592.765 180.128 593.077 169.417C593.274 169.117 593.549 168.991 594.564 168.869C596.053 167.275 597.542 165.681 599.167 163.43C599.118 163.211 599.069 162.993 599.07 162.366L599.38 162.094C599.38 162.094 599.791 162.111 599.897 161.503C600.27 161.365 600.644 161.226 601 160.487C601.07 160.3 601.141 160.112 601.743 159.758C602.168 159.187 602.592 158.616 603.028 158.115C603.028 158.115 602.957 158.129 603.343 157.574C605.156 154.266 607.546 151.142 608.669 147.615C611.486 138.769 613.979 129.756 610.115 119.665C610.061 118.833 610.007 118.001 610.26 116.657C609.821 115.577 609.383 114.497 608.944 113.417C608.494 113.406 608.043 113.395 607.593 113.385C606.75 122.461 601.244 128.13 593.588 132.932C593.348 132.91 593.107 132.888 592.266 132.519C591.519 131.355 590.772 130.191 590.049 129.111C590.049 129.111 589.966 129.138 590.419 128.601C595.218 119.668 595.157 110.571 591.063 100.801C591.035 100.6 591.006 100.398 591.253 99.5729C589.681 93.5525 588.108 87.5321 586.536 81.5117C585.912 81.5406 585.288 81.5695 584.665 81.5984C583.702 83.554 582.774 85.5277 581.77 87.462C578.357 94.0397 574.917 100.604 571.488 107.066C571.488 107.066 571.595 107.064 570.989 107.337C570.649 107.614 570.309 107.89 569.968 108.043C569.968 108.043 570.09 108.035 569.636 108.541C569.096 109.753 568.555 110.966 568.001 112.079C568.001 112.079 568.099 112.064 567.463 112.297C565.653 114.612 563.843 116.926 562.019 119.093C562.019 119.093 562.167 119.08 561.55 119.384C560.387 120.983 559.224 122.581 558.038 124.113C558.038 124.113 558.107 124.125 557.421 124.018C557.3 124.405 557.178 124.792 557.041 125.108C557.041 125.108 557.108 125.138 556.406 124.935C554.625 127.017 552.843 129.099 551.027 131.108C551.027 131.108 551.097 131.149 550.441 130.846C549.297 131.93 548.154 133.015 547.007 134.079C547.007 134.079 547.027 134.073 547.024 134.502C546.817 134.728 546.56 134.833 545.688 135.194C544.774 135.832 543.859 136.469 542.395 137.32C541.64 137.861 540.885 138.403 540.137 139.139C540.137 139.139 539.942 139.159 539.787 139.628C539.534 139.814 539.281 139.999 538.978 140.661C538.81 140.983 538.544 141.13 537.435 141.091C534.706 142.982 531.976 144.873 528.634 147.198C522.152 150.49 515.669 153.783 508.536 156.945C505.399 157.94 502.245 158.887 499.127 159.939C490.538 162.838 481.964 165.781 472.738 169.003C472.503 169.035 472.268 169.067 471.435 168.669C460.017 171.075 448.6 173.482 436.521 176.075C436.063 176.101 435.606 176.127 434.611 175.586C434.128 175.483 433.623 175.231 433.165 175.3C418.246 177.548 403.313 179.711 388.427 182.167C383.629 182.959 378.96 184.532 373.532 186.226C367.591 187.567 361.663 188.964 355.707 190.233C350.836 191.271 345.933 192.158 340.484 192.669C325.358 197.396 310.185 201.981 295.136 206.941C290.993 208.307 287.218 210.79 282.647 212.994C282.425 213.013 282.202 213.032 281.724 213.101C281.539 213.352 281.354 213.602 280.646 214.072C280.457 214.072 280.268 214.072 279.347 214.239C272.38 218.02 265.106 221.34 258.516 225.694C248.854 232.077 239.473 238.974 232.844 249.657C232.246 250.419 231.526 251.116 231.067 251.955C227.915 257.723 224.819 263.52 221.198 269.685C216.065 279.957 216.492 290.798 218.188 301.68C218.536 303.916 220.091 305.964 221.022 308.087C221.022 308.087 221.037 308.019 220.835 308.812C219.778 309.896 218.883 311.645 217.636 311.949C212.346 313.242 206.847 313.74 201.618 315.214C193.764 317.426 186.072 320.212 177.666 323.002C177.437 323.033 177.209 323.064 176.218 323.216C162.991 327.208 151.198 334.052 140.049 341.972C135.961 344.876 132.654 348.878 128.991 352.761C128.856 353.03 128.642 353.133 127.602 353.158C127.403 353.575 127.204 353.993 126.829 354.959C125.949 355.665 125.07 356.371 123.627 357.237C123.15 357.778 122.672 358.318 121.624 359.283C116.192 367.421 110.312 375.301 105.431 383.757C97.6767 397.191 94.5651 412.253 91.2155 427.772C88.2098 439.536 88.1844 451.301 90.9249 463.769C91.0651 464.963 91.2053 466.158 91.4084 467.89C92.7367 467.157 93.459 466.832 94.1024 466.392C109.992 455.528 126.611 445.992 144.39 438.532C145.341 438.133 146.02 437.084 147.445 436.156C147.659 436.144 147.874 436.132 148.66 436.282C156.989 433.571 165.332 430.901 173.641 428.131C177.037 426.998 180.36 425.648 184.446 424.191C184.697 424.216 184.949 424.241 185.782 424.632C193.377 423.303 200.971 421.967 208.568 420.647C213.073 419.864 217.583 419.108 222.955 418.363C224.973 418.222 226.991 418.082 229.9 418.039C232.549 417.879 235.218 417.856 237.828 417.449C238.374 417.363 238.699 415.861 239.821 414.847C241.004 415.555 242.188 416.264 244.208 417.308C250.48 417.243 256.752 417.179 263.773 417.276C264.524 417.199 265.275 417.123 266.711 417.482C275.139 418.144 283.568 418.806 292.732 419.81C298.808 421.238 304.885 422.666 311.04 424.08C311.04 424.08 311.055 424.158 311.246 424.089C311.448 424.147 311.613 424.255 312.498 424.206C313.708 424.547 314.918 424.888 316.437 425.845C319.837 426.869 323.237 427.893 326.791 428.51L327.228 428.481C327.228 428.481 327.437 428.864 328.217 429.541C328.513 429.366 328.809 429.19 329.015 429.083C329.015 429.083 329.098 429.005 328.787 429.689C329.226 429.809 329.664 429.929 330.036 430.066C330.036 430.066 330.044 429.998 329.986 430.774C330.465 430.875 330.945 430.977 331.569 430.93C331.569 430.93 331.763 431.003 331.888 431.672C332.292 431.805 332.696 431.938 333.03 432.073C333.03 432.073 333.033 432.002 333.011 432.696C337.561 435.455 342.111 438.214 346.985 441.485C348.688 442.344 350.391 443.203 352.027 444.073C352.027 444.073 352.035 444.006 351.987 444.701C357.691 450.158 363.395 455.616 369.031 461.077C369.031 461.077 369.044 461.011 368.903 461.68C369.63 462.489 370.358 463.298 370.999 464.115C370.999 464.115 370.987 464.029 371.396 464.353C371.622 464.616 371.848 464.879 371.965 465.142C371.965 465.142 371.959 465.033 372.312 465.272C372.399 465.557 372.575 465.769 373.034 466.428C373.028 466.613 373.022 466.798 373.127 467.594C373.454 468.106 373.782 468.618 373.986 469.104C373.986 469.104 374.009 468.98 374.237 469.581C374.857 470.084 375.476 470.587 376.017 471.09C376.017 471.09 376.017 471.011 376.058 471.723C377.07 473.189 378.082 474.655 378.993 476.102C378.993 476.102 379.009 476 379.065 476.765C381.746 483.116 384.395 489.481 387.162 495.794C387.424 496.391 388.438 496.659 389.034 497.079C389.034 497.079 389.075 497.024 388.695 497.549C389.098 498.835 389.501 500.12 390.665 501.641C390.802 501.413 390.939 501.186 391.128 500.969C391.128 500.969 391.139 501.021 390.432 501.624C390.679 503.111 390.926 504.599 391.174 506.891C391.983 509.459 392.792 512.027 393.59 515.231C393.704 515.859 393.818 516.486 393.87 517.609C393.898 517.774 393.926 517.938 393.946 518.95C398.694 543.235 399.52 567.69 397.333 592.306C396.838 597.875 396.974 603.501 396.397 609.51C396.347 609.995 396.296 610.48 395.673 611.714C395.385 614.81 395.097 617.905 394.383 621.591C392.881 629.71 391.388 637.831 389.875 645.948C388.621 652.683 387.344 659.412 386.04 666.885C385.917 667.359 385.795 667.834 385.318 668.496C382.829 676.406 380.339 684.316 377.85 692.226C378.517 692.555 379.185 692.885 379.853 693.215C383.626 689.177 387.399 685.14 391.301 680.507C391.18 680.344 391.06 680.18 391.014 680.058C391.014 680.058 390.929 680.048 391.638 680.133C396.931 675.199 402.097 670.116 407.581 665.404C409.696 663.587 412.536 662.612 415.866 661.396C421.115 661.659 426.365 661.902 431.613 662.196C433.78 662.317 435.281 661.885 434.803 658.295C434.431 654.187 434.059 650.08 433.671 645.3C433.548 644.87 433.425 644.439 433.409 643.218C433.384 641.892 433.359 640.566 433.829 638.828C438.547 633.623 443.265 628.419 448.53 623.548C455.125 617.265 461.557 610.794 468.419 604.818C470.392 603.099 473.566 602.162 476.261 601.992C482.153 601.622 488.091 601.974 493.972 601.131C493.493 594.555 492.986 587.982 492.569 581.402C492.506 580.404 492.497 579.008 493.086 578.423C503.643 567.923 514.297 557.521 525.317 546.761C525.554 546.512 525.79 546.264 526.178 545.469C526.751 545.007 527.323 544.545 528.66 543.895C532.258 543.376 535.841 542.599 539.455 542.402C544.287 542.138 549.144 542.324 554.619 542.035C554.743 540.801 554.874 539.568 554.989 538.333C555.783 529.786 551.696 520.462 559.248 512.37C560.483 511.28 561.717 510.191 563.211 508.667C563.482 508.469 563.753 508.27 564.188 507.441C565.482 506.321 566.777 505.2 568.65 503.768C569.777 502.498 570.905 501.228 572.134 499.501C572.318 499.205 572.584 499.069 573.556 498.91C574.035 498.263 574.515 497.615 575.105 496.488C575.301 496.176 575.583 496.038 576.512 495.827C577.018 495.213 577.524 494.599 578.092 493.522C578.262 493.212 578.524 493.073 579.21 492.693C579.488 492.476 579.766 492.259 580.034 492.111C580.034 492.111 579.965 492.104 580.58 491.812C583.017 488.882 585.453 485.952 587.917 483.07C587.917 483.07 587.923 483.016 588.793 483.067C588.856 482.554 588.919 482.041 588.938 481.227L589.153 481.012C589.153 481.012 589.454 481.056 590.269 481.327C590.499 480.884 590.729 480.441 590.982 480.071C590.982 480.071 590.908 480.091 591.762 479.826C591.812 461.551 591.862 443.276 591.936 424.978C591.936 424.978 591.95 424.947 592.605 425.47C593.075 424.9 593.545 424.329 594.108 423.37C594.279 423.116 594.514 423.025 595.403 422.942C595.937 422.687 596.472 422.432 597.239 421.537C600.534 417.796 603.829 414.055 607.35 410.058C606.32 409.104 604.662 407.569 603.016 405.33C602.316 404.936 601.617 404.541 600.984 404.118C600.984 404.118 600.976 404.19 601.075 403.517C600.69 403.383 600.305 403.25 599.991 403.114C599.991 403.114 599.983 403.185 600.091 402.479C598.034 401.036 595.978 399.593 593.988 398.112C593.988 398.112 593.973 398.186 594.124 397.49C593.722 397.368 593.321 397.247 592.989 397.112C592.989 397.112 592.98 397.182 593.122 396.356C592.791 394.096 592.18 391.836 592.175 389.576C592.143 375.343 592.163 361.109 592.381 346.879C592.421 344.245 593.446 341.627 594.016 339.087C594.016 339.087 593.93 339.086 594.548 339.052C594.701 338.7 594.855 338.349 595.007 338.078ZM489.606 650.151C489.727 649.764 489.848 649.376 489.993 649.063C489.993 649.063 489.924 649.025 490.598 649.288C492.405 647.551 494.212 645.814 496.064 643.408C496.157 643.205 496.249 643.002 496.746 642.447C496.632 640.106 496.517 637.765 496.119 634.582C495.702 632.671 495.286 630.76 494.585 628.231C489.304 625.891 483.666 624.127 478.847 628.367C472.495 633.955 466.74 640.228 460.802 646.279C458.303 648.826 457.696 660.545 459.798 663.29C460.088 663.668 460.529 663.963 460.954 664.202C466.971 667.584 476.394 665.491 480.72 659.937C483.136 656.958 485.551 653.978 487.99 651.066C487.99 651.066 487.92 651.055 488.583 651.133C488.716 650.753 488.85 650.372 488.99 650.062C488.99 650.062 488.92 650.054 489.606 650.151ZM630.994 221.067C630.994 221.067 630.925 221.061 631.658 221.059C631.776 220.616 631.893 220.174 632.276 219.157C633.854 218.132 635.432 217.107 637.523 215.979C638.373 214.53 639.919 213.098 639.958 211.627C640.185 203.041 640.13 194.443 639.962 185.854C639.942 184.837 638.659 183.845 637.897 182.732C637.897 182.732 638.002 182.661 638.125 181.9C635.636 179.304 633.263 176.576 630.583 174.194C629.832 173.527 627.666 173.299 627.026 173.864C624.509 176.085 622.341 178.703 620.032 181.106C620.032 181.106 620.1 181.117 619.397 181.009C618.669 183.02 617.941 185.031 617.118 187.98C617.148 195.696 617.178 203.412 616.859 211.451C617.023 212.176 617.188 212.902 617.485 214.032C617.485 214.032 617.754 214.363 618.016 214.907C618.377 214.951 618.738 214.994 619.035 215.069C619.035 215.069 619.047 214.999 618.99 215.646C619.36 215.785 619.731 215.925 620.033 216.069C620.033 216.069 620.044 216.001 619.972 216.709C622.013 218.148 624.054 219.587 626.03 221.074C626.03 221.074 626.06 220.998 625.947 221.677C626.333 221.799 626.718 221.921 627.031 222.067C627.031 222.067 627.071 222.001 626.856 222.649C627.896 222.433 628.936 222.218 629.997 222.068C629.997 222.068 629.929 222.055 630.591 222.147C630.721 221.765 630.85 221.382 630.994 221.067ZM358.589 781.145C358.725 780.766 358.86 780.386 359.001 780.076C359.001 780.076 358.931 780.072 359.536 780.082C359.979 779.485 360.422 778.888 361.479 777.966C362.733 776.614 363.987 775.263 365.557 773.655C365.655 773.388 365.825 773.18 366.033 773.13C366.033 773.13 365.933 773.1 366.622 772.974C367.091 772.26 367.56 771.545 368.131 770.335C368.639 769.923 369.147 769.511 370.222 768.786C370.491 768.456 370.761 768.127 371.07 767.407C371.219 767.142 371.443 767.041 372.197 766.69C372.475 766.388 372.752 766.086 373.058 765.395C373.205 765.131 373.427 765.029 374.473 765.123C375.391 763.783 376.826 762.54 377.103 761.078C377.49 759.036 376.907 756.829 376.925 754.694C376.986 747.349 377.017 747.345 369.811 746.819C368.986 746.759 368.154 746.78 367.327 746.742C358.844 746.35 356.007 748.97 355.069 758.9C352.972 763.364 350.875 767.829 348.213 772.539C346.229 776.311 344.245 780.084 341.826 784.685C346.702 784.966 350.005 785.36 353.285 785.218C354.229 785.178 355.106 783.594 356.04 782.361C356.174 782.119 356.377 782.023 357.382 782.161C357.584 781.772 357.786 781.383 357.993 781.064C357.993 781.064 357.925 781.049 358.589 781.145ZM623.568 389.193C623.922 389.406 623.972 389.675 624.392 390.17C628.76 394.697 631.272 390.712 634.737 388.044C634.81 387.691 634.884 387.337 634.991 387.059C634.991 387.059 634.916 387.024 635.621 387.383C638.869 385.981 640.19 383.605 640.096 379.992C639.896 372.254 640.078 364.507 639.964 356.766C639.941 355.215 639.298 353.674 638.697 351.508C637.987 350.822 637.303 350.105 636.563 349.452C627.669 341.603 627.667 341.606 619.14 350.77C619.14 350.77 618.983 350.988 618.319 351.289C617.952 359.194 617.584 367.1 617.123 375.721C617.164 376.2 617.204 376.678 616.893 377.773C617.248 379.945 617.603 382.116 618.49 384.352C618.652 384.277 618.814 384.202 619.103 384.488C619.103 384.488 618.996 384.854 619.149 385.486C619.78 386.025 620.411 386.565 620.996 387.107C620.996 387.107 620.998 387.061 621.318 387.509C621.829 388.026 622.34 388.542 623.086 389.044C623.086 389.044 623.107 389.279 623.568 389.193ZM411.036 698.084C411.036 698.084 411.082 698.154 410.345 697.89C409.592 698.982 408.84 700.074 408.012 701.133C408.012 701.133 408.092 701.141 407.401 700.865C404.714 703.198 401.773 705.303 399.416 707.932C397.247 710.351 398.707 721.206 401.924 724.038C404.157 724.175 406.39 724.313 409.102 724.926C411.186 724.739 413.269 724.552 415.743 723.991C415.894 723.664 416.045 723.337 416.763 722.694C422.22 717.138 427.678 711.581 433.818 705.997C434.536 705.002 435.255 704.008 435.997 703.077C435.997 703.077 435.93 703.069 436.685 702.978C436.675 698.192 436.755 693.401 436.529 688.625C436.502 688.074 434.813 687.31 433.814 687.152C430.896 686.69 427.943 686.405 424.993 686.199C421.163 685.931 418.177 687.158 416.924 691.672C416.745 691.968 416.482 692.11 415.391 692.38C414.947 693.47 414.503 694.56 413.853 696.142C413.272 696.331 412.69 696.52 411.454 696.927C411.323 697.339 411.192 697.751 411.036 698.084ZM552.036 588.11C552.036 588.11 551.897 588.11 552.433 587.871C553.07 586.979 553.707 586.087 555.155 585.065C557.753 582.537 558.562 571.495 556.374 568.421C554.688 566.051 543.41 565.743 539.892 568.644C537.197 571.514 534.502 574.384 531.219 577.422C530.81 578.066 530.4 578.711 530 579.754C529.859 580.04 529.634 580.141 528.614 579.982C527.733 580.722 526.852 581.462 525.978 582.051C525.978 582.051 526.13 582.049 525.54 582.372C520.318 585.884 517.694 590.457 519.531 596.905C519.751 597.678 519.837 598.55 519.736 599.344C519.24 603.239 521.089 604.565 525.612 604.01C527.398 604.04 529.185 604.07 531.507 604.392C535.645 605.731 538.079 604.184 538.991 600.067C538.991 600.067 538.914 600.04 539.624 600.215C539.739 599.805 539.853 599.396 539.985 599.063C539.985 599.063 539.915 599.028 540.604 599.282C543.738 596.222 546.872 593.162 550.014 589.97C550.014 589.97 550.146 589.965 550.397 589.451C550.945 588.958 551.493 588.464 552.036 588.11ZM590.032 519.106C590.032 519.106 590.094 519.142 589.381 518.933C587.939 520.676 586.497 522.419 585.025 524.097C585.025 524.097 585.088 524.131 584.42 523.909C583.373 524.986 582.326 526.063 580.493 527.368C580.242 532.471 579.903 537.573 579.884 542.677C579.882 543.148 581.918 543.628 583.779 544.318C585.91 544.395 588.07 544.725 590.164 544.483C592.779 544.181 595.987 544.185 597.792 542.681C601.907 539.251 605.324 534.982 609.211 530.41C614.084 525.969 618.705 521.404 617.522 513.261C618.223 508.702 616.653 506.287 611.658 506.653C609.532 506.809 607.359 506.477 605.219 506.259C601.215 505.851 598.517 507.505 597.047 511.117C597.047 511.117 597.154 511.121 596.464 511.256C594.98 513.353 593.495 515.451 591.997 517.865C591.878 518.083 591.697 518.161 590.701 518.006C590.482 518.396 590.263 518.786 590.032 519.106ZM638 267.107C638 267.107 637.974 267.169 638.078 266.465C635.367 264.361 632.655 262.258 630.013 260.096C630.013 260.096 629.964 260.172 630.109 259.458C629.136 259.131 627.713 258.223 627.263 258.572C623.878 261.19 618.258 263.766 617.885 266.898C616.748 276.434 617.658 286.215 617.996 296.661C617.947 302.87 624.478 303.534 627.395 307.274C627.613 307.553 631.943 304.752 634.254 303.221C635.564 302.353 636.656 301.156 638.58 300.047C638.708 298.991 638.835 297.936 638.877 296.756C638.877 296.756 638.995 296.661 639.524 295.627C639.355 295.279 639.186 294.931 638.845 294.41C638.845 294.41 638.993 294.216 639.802 293.836C639.89 287.357 640.059 280.878 640.014 274.401C640.002 272.591 639.357 270.785 638.857 268.818C638.857 268.818 639.007 268.662 639.034 267.897C638.667 267.633 638.299 267.369 638 267.107ZM623.029 473.074C623.029 473.074 623.035 473.006 622.902 473.704C624.888 475.328 626.653 477.664 628.924 478.369C631.072 479.035 640.071 468.678 640.087 466.091C640.139 457.768 640.189 449.442 640.004 441.123C639.975 439.773 638.75 438.45 637.757 436.515C635.28 434.363 632.927 432.033 630.253 430.163C629.423 429.584 627.391 429.789 626.485 430.438C624.118 432.132 622.07 434.27 619.169 436.206C618.348 437.841 616.868 439.456 616.819 441.114C616.58 449.264 616.691 457.426 616.738 465.583C616.763 469.806 618.854 472.376 623.029 473.074Z" fill="white"/>
</svg>
